#!OML:ASF E:\Style4\Style4.ASF
:FULLY-SPECIFIED
:DEGREES
2650
root 0.347247 16.44 -0.0556586 4.78684 9.62038 4.40419
lowerback 13.5932 3.88434 -0.721127
upperback 3.2838 4.97988 -1.23505
thorax -4.08371 2.46763 -1.72275
lowerneck -10.1565 -3.1625 -3.57296
upperneck 17.4495 -3.92164 1.44166
head 7.11468 -1.96848 0.701733
rclavicle -7.37491e-014 2.5842e-014
rhumerus -14.3456 42.1628 -22.1636
rradius 137.04
rwrist -80.7323
rhand 41.948 0.252406
rfingers 7.12502
rthumb 63.989 -8.5227
lclavicle -7.37491e-014 2.5842e-014
lhumerus 8.67544 -31.4231 3.60715
lradius 139.602
lwrist 82.7712
lhand 29.662 44.0902
lfingers 7.12502
lthumb 53.4028 63.3241
rfemur -29.7974 -11.8284 13.7564
rtibia 62.4738
rfoot -30.9777 -22.008
rtoes -14.3481
lfemur -30.9114 -4.25791 -24.9002
ltibia 58.3153
lfoot -29.872 10.0547
ltoes -18.1893
2651
root 0.347126 16.4418 -0.0533396 4.78106 9.67171 4.42743
lowerback 13.5667 3.91441 -0.716358
upperback 3.27342 5.02045 -1.24122
thorax -4.07841 2.48773 -1.73707
lowerneck -10.0652 -3.19545 -3.65613
upperneck 17.5874 -3.9637 1.48627
head 7.14721 -1.99021 0.726646
rclavicle 1.92821e-014 2.78299e-015
rhumerus -14.4945 41.9906 -22.4865
rradius 137.044
rwrist -80.5725
rhand 42.0612 0.272725
rfingers 7.12502
rthumb 64.0802 -8.36471
lclavicle 1.92821e-014 2.78299e-015
lhumerus 8.84527 -31.2189 3.92442
lradius 139.489
lwrist 82.777
lhand 29.9126 44.2532
lfingers 7.12502
lthumb 53.6284 63.3395
rfemur -29.7679 -11.856 13.7249
rtibia 62.4829
rfoot -30.9837 -21.9804
rtoes -14.3269
lfemur -30.8878 -4.27314 -24.9233
ltibia 58.2964
lfoot -29.83 10.1913
ltoes -18.7801
2652
root 0.346675 16.4416 -0.0511585 4.79175 9.71339 4.45127
lowerback 13.5345 3.93911 -0.708275
upperback 3.2649 5.05439 -1.25001
thorax -4.0677 2.5046 -1.75429
lowerneck -10.0176 -3.22447 -3.74019
upperneck 17.7605 -3.99324 1.49976
head 7.19807 -2.00853 0.74197
rclavicle 8.15017e-014 -2.74323e-014
rhumerus -14.728 41.7629 -22.9754
rradius 137.066
rwrist -80.2872
rhand 42.0977 0.27478
rfingers 7.12502
rthumb 64.1096 -8.31805
lclavicle 8.15017e-014 -2.74323e-014
lhumerus 8.86587 -30.944 4.46715
lradius 139.439
lwrist 82.8539
lhand 29.9232 44.4282
lfingers 7.12502
lthumb 53.6379 63.5082
rfemur -29.7706 -11.8879 13.6955
rtibia 62.4968
rfoot -31.0257 -21.9296
rtoes -14.3315
lfemur -30.8854 -4.29846 -24.946
ltibia 58.2831
lfoot -29.8453 10.2761
ltoes -19.1991
2653
root 0.346396 16.4427 -0.0483309 4.77484 9.74961 4.37333
lowerback 13.509 3.96064 -0.595187
upperback 3.26696 5.09998 -1.22795
thorax -4.04297 2.52658 -1.79947
lowerneck -9.98536 -3.24874 -3.81057
upperneck 17.9364 -4.01535 1.49826
head 7.25185 -2.02366 0.750643
rclavicle 8.15017e-014 -1.63003e-014
rhumerus -15.0499 41.4166 -23.6281
rradius 137.092
rwrist -80.0962
rhand 42.0194 0.147755
rfingers 7.12502
rthumb 64.0465 -8.54065
lclavicle 8.15017e-014 -1.63003e-014
lhumerus 8.82348 -30.6552 5.18118
lradius 139.421
lwrist 82.7882
lhand 30.0516 44.6293
lfingers 7.12502
lthumb 53.7534 63.6327
rfemur -29.7506 -11.8884 13.7809
rtibia 62.4991
rfoot -31.0617 -21.9475
rtoes -14.4263
lfemur -30.8788 -4.30878 -24.8528
ltibia 58.2843
lfoot -29.9098 10.1675
ltoes -18.9268
2654
root 0.346072 16.443 -0.047168 4.71542 9.78935 4.32075
lowerback 13.5447 3.98866 -0.500257
upperback 3.28521 5.15048 -1.21142
thorax -4.03525 2.55096 -1.84511
lowerneck -9.89398 -3.30099 -3.87242
upperneck 18.0274 -4.0877 1.54256
head 7.26973 -2.0586 0.769394
rclavicle 8.66701e-014 -2.82274e-014
rhumerus -15.4027 40.9184 -24.3713
rradius 137.094
rwrist -80.0946
rhand 41.9961 -0.12971
rfingers 7.12502
rthumb 64.0278 -8.84639
lclavicle 8.66701e-014 -2.82274e-014
lhumerus 8.74898 -30.5193 5.99555
lradius 139.404
lwrist 82.3609
lhand 30.3915 44.5452
lfingers 7.12502
lthumb 54.0586 63.3435
rfemur -29.6776 -11.8913 13.8315
rtibia 62.508
rfoot -31.0423 -21.9945
rtoes -14.3479
lfemur -30.818 -4.29995 -24.7944
ltibia 58.2785
lfoot -29.9113 10.1278
ltoes -19.0043
2655
root 0.344221 16.4412 -0.0475898 4.70029 9.84644 4.37486
lowerback 13.5749 4.03318 -0.518181
upperback 3.29703 5.2059 -1.22468
thorax -4.03825 2.57849 -1.85992
lowerneck -9.71175 -3.36597 -3.99017
upperneck 18.0532 -4.18499 1.66185
head 7.25392 -2.10309 0.821166
rclavicle -5.725e-014 1.90833e-014
rhumerus -15.8987 40.3311 -25.314
rradius 137.108
rwrist -79.9342
rhand 42.0879 -0.336551
rfingers 7.12502
rthumb 64.1017 -8.94144
lclavicle -5.725e-014 1.90833e-014
lhumerus 8.62438 -30.4562 7.01079
lradius 139.374
lwrist 81.8079
lhand 30.6464 44.3117
lfingers 7.12502
lthumb 54.2871 62.9537
rfemur -29.656 -11.9376 13.7723
rtibia 62.5469
rfoot -31.0522 -21.9355
rtoes -14.0514
lfemur -30.7922 -4.32585 -24.8492
ltibia 58.266
lfoot -29.8506 10.0676
ltoes -18.7686
2656
root 0.342705 16.4403 -0.0458741 4.66152 9.87908 4.42783
lowerback 13.6174 4.07302 -0.547362
upperback 3.30485 5.25343 -1.23459
thorax -4.05357 2.60203 -1.86495
lowerneck -9.45023 -3.39355 -4.07782
upperneck 18.0223 -4.22799 1.72266
head 7.20219 -2.12535 0.855809
rclavicle 2.42517e-014 0
rhumerus -16.4518 39.6675 -26.3922
rradius 137.144
rwrist -79.5885
rhand 42.2978 -0.443787
rfingers 7.12502
rthumb 64.2704 -8.79034
lclavicle 2.42517e-014 0
lhumerus 8.33468 -30.1534 8.30006
lradius 139.38
lwrist 81.7029
lhand 30.6508 44.4749
lfingers 7.12502
lthumb 54.2911 63.1142
rfemur -29.5982 -11.934 13.7083
rtibia 62.5761
rfoot -31.0385 -21.9782
rtoes -14.1437
lfemur -30.7258 -4.34563 -24.9005
ltibia 58.2415
lfoot -29.7727 9.92444
ltoes -18.219
2657
root 0.341395 16.4382 -0.0447205 4.6474 9.91151 4.50832
lowerback 13.6157 4.08862 -0.629983
upperback 3.32477 5.26306 -1.23132
thorax -4.03922 2.60763 -1.81624
lowerneck -9.17453 -3.38384 -4.09245
upperneck 17.9409 -4.21074 1.66639
head 7.12559 -2.12425 0.846661
rclavicle 4.7112e-014 -7.95139e-016
rhumerus -16.8622 38.8737 -27.4673
rradius 137.172
rwrist -79.2808
rhand 42.573 -0.733658
rfingers 7.12502
rthumb 64.4907 -8.73627
lclavicle 4.7112e-014 -7.95139e-016
lhumerus 7.82033 -29.7107 9.78509
lradius 139.425
lwrist 81.8242
lhand 30.7856 44.9107
lfingers 7.12502
lthumb 54.4118 63.4664
rfemur -29.5736 -11.9284 13.6182
rtibia 62.6183
rfoot -31.0327 -22.0171
rtoes -14.2219
lfemur -30.6878 -4.37552 -24.9847
ltibia 58.2279
lfoot -29.7589 9.82134
ltoes -17.9469
2658
root 0.338775 16.4368 -0.0433074 4.62625 9.95316 4.56357
lowerback 13.5939 4.07503 -0.727863
upperback 3.39163 5.23423 -1.20215
thorax -3.96928 2.59497 -1.72172
lowerneck -8.99482 -3.36687 -4.14848
upperneck 17.8303 -4.18187 1.65454
head 7.05819 -2.11605 0.858222
rclavicle -4.77083e-014 2.22639e-014
rhumerus -17.1272 37.9077 -28.5623
rradius 137.177
rwrist -79.178
rhand 42.9427 -1.09156
rfingers 7.12502
rthumb 64.7851 -8.62224
lclavicle -4.77083e-014 2.22639e-014
lhumerus 7.19803 -29.2402 11.4344
lradius 139.436
lwrist 81.7836
lhand 31.1332 45.1754
lfingers 7.12502
lthumb 54.7228 63.5127
rfemur -29.5404 -11.9315 13.5668
rtibia 62.6439
rfoot -30.9786 -22.1457
rtoes -14.5155
lfemur -30.6465 -4.38298 -25.0371
ltibia 58.2268
lfoot -29.7717 9.83359
ltoes -18.1723
2659
root 0.335417 16.4357 -0.0422666 4.62763 10.0148 4.51448
lowerback 13.6025 4.05302 -0.705632
upperback 3.40553 5.20983 -1.16793
thorax -3.96116 2.58286 -1.69437
lowerneck -8.78706 -3.36196 -4.22941
upperneck 17.7716 -4.18147 1.72003
head 7.00574 -2.11659 0.896449
rclavicle -5.94366e-014 7.55382e-015
rhumerus -17.5235 36.8506 -29.8371
rradius 137.221
rwrist -79.179
rhand 43.4279 -1.45142
rfingers 7.12502
rthumb 65.1685 -8.34529
lclavicle -5.94366e-014 7.55382e-015
lhumerus 6.53629 -28.8393 13.2099
lradius 139.484
lwrist 81.7596
lhand 31.3169 45.2816
lfingers 7.12502
lthumb 54.8868 63.5018
rfemur -29.5413 -11.9351 13.6429
rtibia 62.6599
rfoot -31.0341 -22.1654
rtoes -14.4643
lfemur -30.6762 -4.39848 -24.9635
ltibia 58.2536
lfoot -29.8128 9.80255
ltoes -18.3206
2660
root 0.333578 16.434 -0.0416775 4.63052 10.0666 4.46192
lowerback 13.6551 4.04878 -0.682189
upperback 3.37894 5.20818 -1.12292
thorax -4.01987 2.58114 -1.66583
lowerneck -8.47537 -3.36884 -4.32283
upperneck 17.689 -4.19733 1.77482
head 6.92795 -2.12717 0.933645
rclavicle -4.01545e-014 2.14687e-014
rhumerus -18.0369 35.7379 -31.2548
rradius 137.239
rwrist -78.7978
rhand 44.075 -1.47495
rfingers 7.12502
rthumb 65.6746 -7.48715
lclavicle -4.01545e-014 2.14687e-014
lhumerus 5.74297 -28.4405 15.2029
lradius 139.539
lwrist 81.7735
lhand 31.4573 45.5169
lfingers 7.12502
lthumb 55.0121 63.6468
rfemur -29.5344 -11.9426 13.7154
rtibia 62.6614
rfoot -31.0866 -22.1941
rtoes -14.5085
lfemur -30.712 -4.40416 -24.8902
ltibia 58.2756
lfoot -29.9035 9.83447
ltoes -18.8022
